<svg xmlns="http://www.w3.org/2000/svg" xmlns:xlink="http://www.w3.org/1999/xlink" id="body_1" preserveAspectRatio="xMinYMin meet" viewBox="0 0 793 1123"><defs><clipPath id="1"><path id="" clip-rule="evenodd" transform="matrix(1 0 0 1 0 0)" d="M0 842L0 0L0 0L595 0L595 0L595 842L595 842L0 842z" /></clipPath><clipPath id="2"><path id="" clip-rule="evenodd" transform="matrix(1 0 0 1 0 0)" d="M0 0L595 0L595 0L595 776L595 776L0 776L0 776L0 0z" /></clipPath><clipPath id="3"><path id="" clip-rule="evenodd" transform="matrix(1 0 0 1 0 0)" d="M0 809L595 809L595 809L595 1585L595 1585L0 1585L0 1585L0 809z" /></clipPath><clipPath id="4"><path id="" clip-rule="evenodd" transform="matrix(1 0 0 1 0 0)" d="M0 33L595 33L595 33L595 809L595 809L0 809L0 809L0 33z" /></clipPath><clipPath id="5"><path id="" clip-rule="evenodd" transform="matrix(1 0 0 1 0 0)" d="M0 33L595 33L595 33L595 809L595 809L0 809L0 809L0 33z" /></clipPath><clipPath id="6"><path id="" clip-rule="evenodd" transform="matrix(1 0 0 1 0 0)" d="M35.375 52.71875L559.625 52.71875L559.625 52.71875L559.625 53.71875L559.625 53.71875L35.375 53.71875L35.375 53.71875L35.375 52.71875z" /></clipPath><clipPath id="7"><path id="" clip-rule="evenodd" transform="matrix(1 0 0 1 0 0)" d="M0 33L595 33L595 33L595 809L595 809L0 809L0 809L0 33z" /></clipPath><clipPath id="8"><path id="" clip-rule="evenodd" transform="matrix(1 0 0 1 0 0)" d="M0 33L595 33L595 33L595 809L595 809L0 809L0 809L0 33z" /></clipPath><clipPath id="9"><path id="" clip-rule="evenodd" transform="matrix(1 0 0 1 0 0)" d="M35.375 122.6094L559.625 122.6094L559.625 122.6094L559.625 123.6094L559.625 123.6094L35.375 123.6094L35.375 123.6094L35.375 122.6094z" /></clipPath><clipPath id="10"><path id="" clip-rule="evenodd" transform="matrix(1 0 0 1 0 0)" d="M0 33L595 33L595 33L595 809L595 809L0 809L0 809L0 33z" /></clipPath><clipPath id="11"><path id="" clip-rule="evenodd" transform="matrix(1 0 0 1 0 0)" d="M0 33L595 33L595 33L595 809L595 809L0 809L0 809L0 33z" /></clipPath><clipPath id="12"><path id="" clip-rule="evenodd" transform="matrix(1 0 0 1 0 0)" d="M35.375 191.4219L559.625 191.4219L559.625 191.4219L559.625 192.4219L559.625 192.4219L35.375 192.4219L35.375 192.4219L35.375 191.4219z" /></clipPath><clipPath id="13"><path id="" clip-rule="evenodd" transform="matrix(1 0 0 1 0 0)" d="M0 33L595 33L595 33L595 809L595 809L0 809L0 809L0 33z" /></clipPath><clipPath id="14"><path id="" clip-rule="evenodd" transform="matrix(1 0 0 1 0 0)" d="M0 33L595 33L595 33L595 809L595 809L0 809L0 809L0 33z" /></clipPath><clipPath id="15"><path id="" clip-rule="evenodd" transform="matrix(1 0 0 1 0 0)" d="M35.375 35.35938L156 35.35938L156 35.35938L156 51.35938L156 51.35938L35.375 51.35938L35.375 51.35938L35.375 35.35938z" /></clipPath><clipPath id="16"><path id="" clip-rule="evenodd" transform="matrix(1 0 0 1 0 0)" d="M0 33L595 33L595 33L595 809L595 809L0 809L0 809L0 33z" /></clipPath><clipPath id="17"><path id="" clip-rule="evenodd" transform="matrix(1 0 0 1 0 0)" d="M0 33L595 33L595 33L595 809L595 809L0 809L0 809L0 33z" /></clipPath><clipPath id="18"><path id="" clip-rule="evenodd" transform="matrix(1 0 0 1 0 0)" d="M35.375 105.25L104 105.25L104 105.25L104 121.25L104 121.25L35.375 121.25L35.375 121.25L35.375 105.25z" /></clipPath><clipPath id="19"><path id="" clip-rule="evenodd" transform="matrix(1 0 0 1 0 0)" d="M0 33L595 33L595 33L595 809L595 809L0 809L0 809L0 33z" /></clipPath><clipPath id="20"><path id="" clip-rule="evenodd" transform="matrix(1 0 0 1 0 0)" d="M0 33L595 33L595 33L595 809L595 809L0 809L0 809L0 33z" /></clipPath><clipPath id="21"><path id="" clip-rule="evenodd" transform="matrix(1 0 0 1 0 0)" d="M35.375 174.0625L124 174.0625L124 174.0625L124 190.0625L124 190.0625L35.375 190.0625L35.375 190.0625L35.375 174.0625z" /></clipPath><clipPath id="22"><path id="" clip-rule="evenodd" transform="matrix(1 0 0 1 0 0)" d="M0 33L595 33L595 33L595 809L595 809L0 809L0 809L0 33z" /></clipPath></defs><g transform="matrix(1.333333 0 0 1.333333 0 0)"><g clip-path="url(#1)"><g clip-path="url(#2)"><path id="1" transform="matrix(1 0 0 -1 0 842)" d="M0 842L595 842L595 809L0 809z" stroke="none" fill="#FFFFFF" fill-rule="nonzero" /></g><g clip-path="url(#3)"><path id="22" transform="matrix(1 0 0 -1 0 842)" d="M0 33L595 33L595 0L0 0z" stroke="none" fill="#FFFFFF" fill-rule="nonzero" /></g><g clip-path="url(#4)"><path id="23" transform="matrix(1 0 0 -1 0 842)" d="M0 1585L595 1585L595 620L0 620z" stroke="none" fill="#FFFFFF" fill-rule="nonzero" /><path id="62" transform="matrix(1 0 0 -1 0 842)" d="M40 763.5C 40 762.6716 39.32843 762 38.5 762C 37.67157 762 37 762.6716 37 763.5C 37 764.3284 37.67157 765 38.5 765C 39.32843 765 40 764.3284 40 763.5z" stroke="#000000" stroke-width="1" fill="#000000" fill-rule="evenodd" /><path id="92" transform="matrix(1 0 0 -1 0 842)" d="M40 749.5C 40 748.6716 39.32843 748 38.5 748C 37.67157 748 37 748.6716 37 749.5C 37 750.3284 37.67157 751 38.5 751C 39.32843 751 40 750.3284 40 749.5z" stroke="#000000" stroke-width="1" fill="#000000" fill-rule="evenodd" /><path id="109" transform="matrix(1 0 0 -1 0 842)" d="M40 707.5C 40 706.6716 39.32843 706 38.5 706C 37.67157 706 37 706.6716 37 707.5C 37 708.3284 37.67157 709 38.5 709C 39.32843 709 40 708.3284 40 707.5z" stroke="#000000" stroke-width="1" fill="#000000" fill-rule="evenodd" /><path id="122" transform="matrix(1 0 0 -1 0 842)" d="M40 693.5C 40 692.6716 39.32843 692 38.5 692C 37.67157 692 37 692.6716 37 693.5C 37 694.3284 37.67157 695 38.5 695C 39.32843 695 40 694.3284 40 693.5z" stroke="#000000" stroke-width="1" fill="#000000" fill-rule="evenodd" /><path id="150" transform="matrix(1 0 0 -1 0 842)" d="M40 680.5C 40 679.6716 39.32843 679 38.5 679C 37.67157 679 37 679.6716 37 680.5C 37 681.3284 37.67157 682 38.5 682C 39.32843 682 40 681.3284 40 680.5z" stroke="#000000" stroke-width="1" fill="#000000" fill-rule="evenodd" /></g><g clip-path="url(#5)"><g clip-path="url(#6)"><g transform="matrix(1 0 0 1 35 52)"><g transform="matrix(1 0 0 1 0 0)"><image x="0" y="0" xlink:href="img_01.png" width="526" height="3" /></g></g></g></g><g clip-path="url(#7)"></g><g clip-path="url(#8)"><g clip-path="url(#9)"><g transform="matrix(1 0 0 1 35 122)"><g transform="matrix(1 0 0 1 0 0)"><image x="0" y="0" xlink:href="img_01.png" width="526" height="3" /></g></g></g></g><g clip-path="url(#10)"></g><g clip-path="url(#11)"><g clip-path="url(#12)"><g transform="matrix(1 0 0 1 35 191)"><g transform="matrix(1 0 0 1 0 0)"><image x="0" y="0" xlink:href="img_02.png" width="526" height="3" /></g></g></g></g><g clip-path="url(#13)"></g><g clip-path="url(#14)"><g clip-path="url(#15)"><g transform="matrix(0.9999999 0 0 1 35 35)"><g transform="matrix(1 0 0 1 0 0)"><image x="0" y="0" xlink:href="img_03.png" width="122" height="18" /></g></g></g></g><g clip-path="url(#16)"></g><g clip-path="url(#17)"><g clip-path="url(#18)"><g transform="matrix(1 0 0 1 35 105)"><g transform="matrix(1 0 0 1 0 0)"><image x="0" y="0" xlink:href="img_04.png" width="70" height="18" /></g></g></g></g><g clip-path="url(#19)"></g><g clip-path="url(#20)"><g clip-path="url(#21)"><g transform="matrix(1 0 0 1 35 174)"><g transform="matrix(1 0 0 1 0 0)"><image x="0" y="0" xlink:href="img_05.png" width="90" height="18" /></g></g></g></g><g clip-path="url(#22)"><path id="288" transform="matrix(1 0 0 -1 0 842)" d="M35 809L35 791L147 791L143 809L35 809z" stroke="none" fill="#000000" fill-rule="nonzero" /><path id="289" transform="matrix(1 0 0 -1 0 842)" d="M35 739L35 721L95 721L91 739L35 739z" stroke="none" fill="#000000" fill-rule="nonzero" /><path id="290" transform="matrix(1 0 0 -1 0 842)" d="M35 670L35 652L116 652L112 670L35 670z" stroke="none" fill="#000000" fill-rule="nonzero" /></g></g></g></svg>