<svg xmlns="http://www.w3.org/2000/svg" xmlns:xlink="http://www.w3.org/1999/xlink" id="body_1" preserveAspectRatio="xMinYMin meet" viewBox="0 0 793 1123"><defs><clipPath id="1"><path id="" clip-rule="evenodd" transform="matrix(1 0 0 1 0 0)" d="M0 842L0 0L0 0L595 0L595 0L595 842L595 842L0 842z" /></clipPath><clipPath id="2"><path id="" clip-rule="evenodd" transform="matrix(1 0 0 1 0 0)" d="M0 0L595 0L595 0L595 776L595 776L0 776L0 776L0 0z" /></clipPath><clipPath id="3"><path id="" clip-rule="evenodd" transform="matrix(1 0 0 1 0 0)" d="M0 809L595 809L595 809L595 1585L595 1585L0 1585L0 1585L0 809z" /></clipPath><clipPath id="4"><path id="" clip-rule="evenodd" transform="matrix(1 0 0 1 0 0)" d="M0 33L595 33L595 33L595 809L595 809L0 809L0 809L0 33z" /></clipPath><clipPath id="5"><path id="" clip-rule="evenodd" transform="matrix(1 0 0 1 0 0)" d="M0 33L595 33L595 33L595 809L595 809L0 809L0 809L0 33z" /></clipPath><clipPath id="6"><path id="" clip-rule="evenodd" transform="matrix(1 0 0 1 0 0)" d="M297 35L298 35C 317.8823 35 334 51.56543 334 72C 334 92.43457 317.8823 109 298 109L298 109L297 109C 277.1177 109 261 92.43457 261 72C 261 51.56543 277.1177 35 297 35z" /></clipPath><clipPath id="7"><path id="" clip-rule="evenodd" transform="matrix(1 0 0 1 0 0)" d="M0 33L595 33L595 33L595 809L595 809L0 809L0 809L0 33z" /></clipPath><clipPath id="8"><path id="" clip-rule="evenodd" transform="matrix(1 0 0 1 0 0)" d="M0 33L595 33L595 33L595 809L595 809L0 809L0 809L0 33z" /></clipPath><clipPath id="9"><path id="" clip-rule="evenodd" transform="matrix(1 0 0 1 0 0)" d="M35.375 211.6406L559.625 211.6406L559.625 211.6406L559.625 212.6406L559.625 212.6406L35.375 212.6406L35.375 212.6406L35.375 211.6406z" /></clipPath><clipPath id="10"><path id="" clip-rule="evenodd" transform="matrix(1 0 0 1 0 0)" d="M0 33L595 33L595 33L595 809L595 809L0 809L0 809L0 33z" /></clipPath><clipPath id="11"><path id="" clip-rule="evenodd" transform="matrix(1 0 0 1 0 0)" d="M0 33L595 33L595 33L595 809L595 809L0 809L0 809L0 33z" /></clipPath><clipPath id="12"><path id="" clip-rule="evenodd" transform="matrix(1 0 0 1 0 0)" d="M35.375 253.7813L559.625 253.7813L559.625 253.7813L559.625 254.7813L559.625 254.7813L35.375 254.7813L35.375 254.7813L35.375 253.7813z" /></clipPath><clipPath id="13"><path id="" clip-rule="evenodd" transform="matrix(1 0 0 1 0 0)" d="M0 33L595 33L595 33L595 809L595 809L0 809L0 809L0 33z" /></clipPath><clipPath id="14"><path id="" clip-rule="evenodd" transform="matrix(1 0 0 1 0 0)" d="M0 33L595 33L595 33L595 809L595 809L0 809L0 809L0 33z" /></clipPath><clipPath id="15"><path id="" clip-rule="evenodd" transform="matrix(1 0 0 1 0 0)" d="M35.375 348.5469L559.625 348.5469L559.625 348.5469L559.625 349.5469L559.625 349.5469L35.375 349.5469L35.375 349.5469L35.375 348.5469z" /></clipPath><clipPath id="16"><path id="" clip-rule="evenodd" transform="matrix(1 0 0 1 0 0)" d="M0 33L595 33L595 33L595 809L595 809L0 809L0 809L0 33z" /></clipPath><clipPath id="17"><path id="" clip-rule="evenodd" transform="matrix(1 0 0 1 0 0)" d="M0 33L595 33L595 33L595 809L595 809L0 809L0 809L0 33z" /></clipPath><clipPath id="18"><path id="" clip-rule="evenodd" transform="matrix(1 0 0 1 0 0)" d="M35.375 562.4375L559.625 562.4375L559.625 562.4375L559.625 563.4375L559.625 563.4375L35.375 563.4375L35.375 563.4375L35.375 562.4375z" /></clipPath><clipPath id="19"><path id="" clip-rule="evenodd" transform="matrix(1 0 0 1 0 0)" d="M0 33L595 33L595 33L595 809L595 809L0 809L0 809L0 33z" /></clipPath><clipPath id="20"><path id="" clip-rule="evenodd" transform="matrix(1 0 0 1 0 0)" d="M0 33L595 33L595 33L595 809L595 809L0 809L0 809L0 33z" /></clipPath><clipPath id="21"><path id="" clip-rule="evenodd" transform="matrix(1 0 0 1 0 0)" d="M35.375 657.2031L559.625 657.2031L559.625 657.2031L559.625 658.2031L559.625 658.2031L35.375 658.2031L35.375 658.2031L35.375 657.2031z" /></clipPath><clipPath id="22"><path id="" clip-rule="evenodd" transform="matrix(1 0 0 1 0 0)" d="M0 33L595 33L595 33L595 809L595 809L0 809L0 809L0 33z" /></clipPath><clipPath id="23"><path id="" clip-rule="evenodd" transform="matrix(1 0 0 1 0 0)" d="M0 33L595 33L595 33L595 809L595 809L0 809L0 809L0 33z" /></clipPath><clipPath id="24"><path id="" clip-rule="evenodd" transform="matrix(1 0 0 1 0 0)" d="M35.375 194.2813L124 194.2813L124 194.2813L124 210.2813L124 210.2813L35.375 210.2813L35.375 210.2813L35.375 194.2813z" /></clipPath><clipPath id="25"><path id="" clip-rule="evenodd" transform="matrix(1 0 0 1 0 0)" d="M0 33L595 33L595 33L595 809L595 809L0 809L0 809L0 33z" /></clipPath><clipPath id="26"><path id="" clip-rule="evenodd" transform="matrix(1 0 0 1 0 0)" d="M0 33L595 33L595 33L595 809L595 809L0 809L0 809L0 33z" /></clipPath><clipPath id="27"><path id="" clip-rule="evenodd" transform="matrix(1 0 0 1 0 0)" d="M35.375 236.4219L124 236.4219L124 236.4219L124 252.4219L124 252.4219L35.375 252.4219L35.375 252.4219L35.375 236.4219z" /></clipPath><clipPath id="28"><path id="" clip-rule="evenodd" transform="matrix(1 0 0 1 0 0)" d="M0 33L595 33L595 33L595 809L595 809L0 809L0 809L0 33z" /></clipPath><clipPath id="29"><path id="" clip-rule="evenodd" transform="matrix(1 0 0 1 0 0)" d="M0 33L595 33L595 33L595 809L595 809L0 809L0 809L0 33z" /></clipPath><clipPath id="30"><path id="" clip-rule="evenodd" transform="matrix(1 0 0 1 0 0)" d="M35.375 331.1875L124 331.1875L124 331.1875L124 347.1875L124 347.1875L35.375 347.1875L35.375 347.1875L35.375 331.1875z" /></clipPath><clipPath id="31"><path id="" clip-rule="evenodd" transform="matrix(1 0 0 1 0 0)" d="M0 33L595 33L595 33L595 809L595 809L0 809L0 809L0 33z" /></clipPath><clipPath id="32"><path id="" clip-rule="evenodd" transform="matrix(1 0 0 1 0 0)" d="M0 33L595 33L595 33L595 809L595 809L0 809L0 809L0 33z" /></clipPath><clipPath id="33"><path id="" clip-rule="evenodd" transform="matrix(1 0 0 1 0 0)" d="M35.375 545.0781L124 545.0781L124 545.0781L124 561.0781L124 561.0781L35.375 561.0781L35.375 561.0781L35.375 545.0781z" /></clipPath><clipPath id="34"><path id="" clip-rule="evenodd" transform="matrix(1 0 0 1 0 0)" d="M0 33L595 33L595 33L595 809L595 809L0 809L0 809L0 33z" /></clipPath><clipPath id="35"><path id="" clip-rule="evenodd" transform="matrix(1 0 0 1 0 0)" d="M0 33L595 33L595 33L595 809L595 809L0 809L0 809L0 33z" /></clipPath><clipPath id="36"><path id="" clip-rule="evenodd" transform="matrix(1 0 0 1 0 0)" d="M35.375 639.8438L124 639.8438L124 639.8438L124 655.8438L124 655.8438L35.375 655.8438L35.375 655.8438L35.375 639.8438z" /></clipPath><clipPath id="37"><path id="" clip-rule="evenodd" transform="matrix(1 0 0 1 0 0)" d="M0 33L595 33L595 33L595 809L595 809L0 809L0 809L0 33z" /></clipPath></defs><g transform="matrix(1.333333 0 0 1.333333 0 0)"><g clip-path="url(#1)"><g clip-path="url(#2)"><path id="1" transform="matrix(1 0 0 -1 0 842)" d="M0 842L595 842L595 809L0 809z" stroke="none" fill="#FFFFFF" fill-rule="nonzero" /></g><g clip-path="url(#3)"><path id="22" transform="matrix(1 0 0 -1 0 842)" d="M0 33L595 33L595 0L0 0z" stroke="none" fill="#FFFFFF" fill-rule="nonzero" /></g><g clip-path="url(#4)"><path id="23" transform="matrix(1 0 0 -1 0 842)" d="M0 809L595 809L595 -156L0 -156z" stroke="none" fill="#FFFFFF" fill-rule="nonzero" /><path id="129" transform="matrix(1 0 0 -1 0 842)" d="M40 548.5C 40 547.6716 39.32843 547 38.5 547C 37.67157 547 37 547.6716 37 548.5C 37 549.3284 37.67157 550 38.5 550C 39.32843 550 40 549.3284 40 548.5z" stroke="#000000" stroke-width="1" fill="#000000" fill-rule="evenodd" /><path id="158" transform="matrix(1 0 0 -1 0 842)" d="M40 534.5C 40 533.6716 39.32843 533 38.5 533C 37.67157 533 37 533.6716 37 534.5C 37 535.3284 37.67157 536 38.5 536C 39.32843 536 40 535.3284 40 534.5z" stroke="#000000" stroke-width="1" fill="#000000" fill-rule="evenodd" /><path id="327" transform="matrix(1 0 0 -1 0 842)" d="M40 453.5C 40 452.6716 39.32843 452 38.5 452C 37.67157 452 37 452.6716 37 453.5C 37 454.3284 37.67157 455 38.5 455C 39.32843 455 40 454.3284 40 453.5z" stroke="#000000" stroke-width="1" fill="#000000" fill-rule="evenodd" /><path id="382" transform="matrix(1 0 0 -1 0 842)" d="M40 439.5C 40 438.6716 39.32843 438 38.5 438C 37.67157 438 37 438.6716 37 439.5C 37 440.3284 37.67157 441 38.5 441C 39.32843 441 40 440.3284 40 439.5z" stroke="#000000" stroke-width="1" fill="#000000" fill-rule="evenodd" /><path id="441" transform="matrix(1 0 0 -1 0 842)" d="M40 414.5C 40 413.6716 39.32843 413 38.5 413C 37.67157 413 37 413.6716 37 414.5C 37 415.3284 37.67157 416 38.5 416C 39.32843 416 40 415.3284 40 414.5z" stroke="#000000" stroke-width="1" fill="#000000" fill-rule="evenodd" /><path id="509" transform="matrix(1 0 0 -1 0 842)" d="M40 389.5C 40 388.6716 39.32843 388 38.5 388C 37.67157 388 37 388.6716 37 389.5C 37 390.3284 37.67157 391 38.5 391C 39.32843 391 40 390.3284 40 389.5z" stroke="#000000" stroke-width="1" fill="#000000" fill-rule="evenodd" /><path id="608" transform="matrix(1 0 0 -1 0 842)" d="M40 351.5C 40 350.6716 39.32843 350 38.5 350C 37.67157 350 37 350.6716 37 351.5C 37 352.3284 37.67157 353 38.5 353C 39.32843 353 40 352.3284 40 351.5z" stroke="#000000" stroke-width="1" fill="#000000" fill-rule="evenodd" /><path id="632" transform="matrix(1 0 0 -1 0 842)" d="M40 337.5C 40 336.6716 39.32843 336 38.5 336C 37.67157 336 37 336.6716 37 337.5C 37 338.3284 37.67157 339 38.5 339C 39.32843 339 40 338.3284 40 337.5z" stroke="#000000" stroke-width="1" fill="#000000" fill-rule="evenodd" /><path id="685" transform="matrix(1 0 0 -1 0 842)" d="M40 323.5C 40 322.6716 39.32843 322 38.5 322C 37.67157 322 37 322.6716 37 323.5C 37 324.3284 37.67157 325 38.5 325C 39.32843 325 40 324.3284 40 323.5z" stroke="#000000" stroke-width="1" fill="#000000" fill-rule="evenodd" /><path id="723" transform="matrix(1 0 0 -1 0 842)" d="M40 309.5C 40 308.6716 39.32843 308 38.5 308C 37.67157 308 37 308.6716 37 309.5C 37 310.3284 37.67157 311 38.5 311C 39.32843 311 40 310.3284 40 309.5z" stroke="#000000" stroke-width="1" fill="#000000" fill-rule="evenodd" /><path id="807" transform="matrix(1 0 0 -1 0 842)" d="M40 253.5C 40 252.6716 39.32843 252 38.5 252C 37.67157 252 37 252.6716 37 253.5C 37 254.3284 37.67157 255 38.5 255C 39.32843 255 40 254.3284 40 253.5z" stroke="#000000" stroke-width="1" fill="#000000" fill-rule="evenodd" /><path id="867" transform="matrix(1 0 0 -1 0 842)" d="M97 249.5L393 249.5" stroke="#4183FF" stroke-width="1" stroke-linecap="square" fill="none" /><path id="868" transform="matrix(1 0 0 -1 0 842)" d="M40 239.5C 40 238.6716 39.32843 238 38.5 238C 37.67157 238 37 238.6716 37 239.5C 37 240.3284 37.67157 241 38.5 241C 39.32843 241 40 240.3284 40 239.5z" stroke="#000000" stroke-width="1" fill="#000000" fill-rule="evenodd" /><path id="902" transform="matrix(1 0 0 -1 0 842)" d="M40 225.5C 40 224.6716 39.32843 224 38.5 224C 37.67157 224 37 224.6716 37 225.5C 37 226.3284 37.67157 227 38.5 227C 39.32843 227 40 226.3284 40 225.5z" stroke="#000000" stroke-width="1" fill="#000000" fill-rule="evenodd" /><path id="1015" transform="matrix(1 0 0 -1 0 842)" d="M40 172.5C 40 171.6716 39.32843 171 38.5 171C 37.67157 171 37 171.6716 37 172.5C 37 173.3284 37.67157 174 38.5 174C 39.32843 174 40 173.3284 40 172.5z" stroke="#000000" stroke-width="1" fill="#000000" fill-rule="evenodd" /><path id="1046" transform="matrix(1 0 0 -1 0 842)" d="M40 158.5C 40 157.6716 39.32843 157 38.5 157C 37.67157 157 37 157.6716 37 158.5C 37 159.3284 37.67157 160 38.5 160C 39.32843 160 40 159.3284 40 158.5z" stroke="#000000" stroke-width="1" fill="#000000" fill-rule="evenodd" /><path id="1082" transform="matrix(1 0 0 -1 0 842)" d="M40 144.5C 40 143.6716 39.32843 143 38.5 143C 37.67157 143 37 143.6716 37 144.5C 37 145.3284 37.67157 146 38.5 146C 39.32843 146 40 145.3284 40 144.5z" stroke="#000000" stroke-width="1" fill="#000000" fill-rule="evenodd" /><path id="1142" transform="matrix(1 0 0 -1 0 842)" d="M40 130.5C 40 129.6716 39.32843 129 38.5 129C 37.67157 129 37 129.6716 37 130.5C 37 131.3284 37.67157 132 38.5 132C 39.32843 132 40 131.3284 40 130.5z" stroke="#000000" stroke-width="1" fill="#000000" fill-rule="evenodd" /><path id="1171" transform="matrix(1 0 0 -1 0 842)" d="M40 117.5C 40 116.6716 39.32843 116 38.5 116C 37.67157 116 37 116.6716 37 117.5C 37 118.3284 37.67157 119 38.5 119C 39.32843 119 40 118.3284 40 117.5z" stroke="#000000" stroke-width="1" fill="#000000" fill-rule="evenodd" /><path id="1207" transform="matrix(1 0 0 -1 0 842)" d="M40 103.5C 40 102.6716 39.32843 102 38.5 102C 37.67157 102 37 102.6716 37 103.5C 37 104.3284 37.67157 105 38.5 105C 39.32843 105 40 104.3284 40 103.5z" stroke="#000000" stroke-width="1" fill="#000000" fill-rule="evenodd" /><path id="1231" transform="matrix(1 0 0 -1 0 842)" d="M40 89.5C 40 88.67157 39.32843 88 38.5 88C 37.67157 88 37 88.67157 37 89.5C 37 90.32843 37.67157 91 38.5 91C 39.32843 91 40 90.32843 40 89.5z" stroke="#000000" stroke-width="1" fill="#000000" fill-rule="evenodd" /><path id="1265" transform="matrix(1 0 0 -1 0 842)" d="M40 75.5C 40 74.67157 39.32843 74 38.5 74C 37.67157 74 37 74.67157 37 75.5C 37 76.32843 37.67157 77 38.5 77C 39.32843 77 40 76.32843 40 75.5z" stroke="#000000" stroke-width="1" fill="#000000" fill-rule="evenodd" /><path id="1327" transform="matrix(1 0 0 -1 0 842)" d="M40 61.5C 40 60.67157 39.32843 60 38.5 60C 37.67157 60 37 60.67157 37 61.5C 37 62.32843 37.67157 63 38.5 63C 39.32843 63 40 62.32843 40 61.5z" stroke="#000000" stroke-width="1" fill="#000000" fill-rule="evenodd" /><path id="1377" transform="matrix(1 0 0 -1 0 842)" d="M40 47.5C 40 46.67157 39.32843 46 38.5 46C 37.67157 46 37 46.67157 37 47.5C 37 48.32843 37.67157 49 38.5 49C 39.32843 49 40 48.32843 40 47.5z" stroke="#000000" stroke-width="1" fill="#000000" fill-rule="evenodd" /></g><g clip-path="url(#5)"><g clip-path="url(#6)"><g transform="matrix(0.1746411 0 0 0.1736527 261 35)"><g transform="matrix(1 0 0 1 0 0)"><image x="0" y="0" xlink:href="img_01.png" width="418" height="426" /></g></g></g></g><g clip-path="url(#7)"><g transform="matrix(0.1875 0 0 0.1875 200 146)"><g transform="matrix(1 0 0 1 0 0)"><image x="0" y="0" xlink:href="img_02.png" width="48" height="48" /></g></g><g transform="matrix(0.1666667 0 0 0.1666667 287 147.0001)"><g transform="matrix(1 0 0 1 0 0)"><image x="0" y="0" xlink:href="img_03.png" width="48" height="48" /></g></g><g transform="matrix(0.1666667 0 0 0.1666667 249 158.0001)"><g transform="matrix(1 0 0 1 0 0)"><image x="0" y="0" xlink:href="img_04.png" width="48" height="48" /></g></g><g transform="matrix(0.1875 0 0 0.1875 189 168)"><g transform="matrix(1 0 0 1 0 0)"><image x="0" y="0" xlink:href="img_05.png" width="48" height="48" /></g></g><g transform="matrix(0.1875 0 0 0.1875 234 168)"><g transform="matrix(1 0 0 1 0 0)"><image x="0" y="0" xlink:href="img_06.png" width="48" height="48" /></g></g><g transform="matrix(0.1875 0 0 0.1875 268 168)"><g transform="matrix(1 0 0 1 0 0)"><image x="0" y="0" xlink:href="img_07.png" width="48" height="48" /></g></g><g transform="matrix(0.1666667 0 0 0.1666667 312 169.0001)"><g transform="matrix(1 0 0 1 0 0)"><image x="0" y="0" xlink:href="img_08.png" width="48" height="48" /></g></g><g transform="matrix(0.1875 0 0 0.1875 355 168)"><g transform="matrix(1 0 0 1 0 0)"><image x="0" y="0" xlink:href="img_09.png" width="48" height="48" /></g></g><g transform="matrix(0.1456693 0 0 0.1470588 35 35.00006)"><g transform="matrix(1 0 0 1 0 0)"><image x="0" y="0" xlink:href="img_10.png" width="762" height="238" /></g></g></g><g clip-path="url(#8)"><g clip-path="url(#9)"><g transform="matrix(1 0 0 1 35 211)"><g transform="matrix(1 0 0 1 0 0)"><image x="0" y="0" xlink:href="img_11.png" width="526" height="3" /></g></g></g></g><g clip-path="url(#10)"></g><g clip-path="url(#11)"><g clip-path="url(#12)"><g transform="matrix(1 0 0 1 35 253)"><g transform="matrix(1 0 0 1 0 0)"><image x="0" y="0" xlink:href="img_11.png" width="526" height="3" /></g></g></g></g><g clip-path="url(#13)"></g><g clip-path="url(#14)"><g clip-path="url(#15)"><g transform="matrix(1 0 0 1 35 348)"><g transform="matrix(1 0 0 1 0 0)"><image x="0" y="0" xlink:href="img_11.png" width="526" height="3" /></g></g></g></g><g clip-path="url(#16)"></g><g clip-path="url(#17)"><g clip-path="url(#18)"><g transform="matrix(1 0 0 1 35 562)"><g transform="matrix(1 0 0 1 0 0)"><image x="0" y="0" xlink:href="img_12.png" width="526" height="3" /></g></g></g></g><g clip-path="url(#19)"></g><g clip-path="url(#20)"><g clip-path="url(#21)"><g transform="matrix(1 0 0 1 35 657)"><g transform="matrix(1 0 0 1 0 0)"><image x="0" y="0" xlink:href="img_12.png" width="526" height="3" /></g></g></g></g><g clip-path="url(#22)"></g><g clip-path="url(#23)"><g clip-path="url(#24)"><g transform="matrix(1 0 0 1 35 194)"><g transform="matrix(1 0 0 1 0 0)"><image x="0" y="0" xlink:href="img_13.png" width="90" height="18" /></g></g></g></g><g clip-path="url(#25)"></g><g clip-path="url(#26)"><g clip-path="url(#27)"><g transform="matrix(1 0 0 1 35 236)"><g transform="matrix(1 0 0 1 0 0)"><image x="0" y="0" xlink:href="img_13.png" width="90" height="18" /></g></g></g></g><g clip-path="url(#28)"></g><g clip-path="url(#29)"><g clip-path="url(#30)"><g transform="matrix(1 0 0 1 35 331)"><g transform="matrix(1 0 0 1 0 0)"><image x="0" y="0" xlink:href="img_13.png" width="90" height="18" /></g></g></g></g><g clip-path="url(#31)"></g><g clip-path="url(#32)"><g clip-path="url(#33)"><g transform="matrix(1 0 0 1 35 545)"><g transform="matrix(1 0 0 1 0 0)"><image x="0" y="0" xlink:href="img_13.png" width="90" height="18" /></g></g></g></g><g clip-path="url(#34)"></g><g clip-path="url(#35)"><g clip-path="url(#36)"><g transform="matrix(1 0 0 1 35 639)"><g transform="matrix(1 0 0 1 0 0)"><image x="0" y="0" xlink:href="img_14.png" width="90" height="18" /></g></g></g></g><g clip-path="url(#37)"><path id="1481" transform="matrix(1 0 0 -1 0 842)" d="M35 650L35 632L116 632L112 650L35 650z" stroke="none" fill="#000000" fill-rule="nonzero" /><path id="1482" transform="matrix(1 0 0 -1 0 842)" d="M35 608L35 590L116 590L112 608L35 608z" stroke="none" fill="#000000" fill-rule="nonzero" /><path id="1483" transform="matrix(1 0 0 -1 0 842)" d="M35 513L35 495L116 495L112 513L35 513z" stroke="none" fill="#000000" fill-rule="nonzero" /><path id="1484" transform="matrix(1 0 0 -1 0 842)" d="M35 299L35 281L116 281L112 299L35 299z" stroke="none" fill="#000000" fill-rule="nonzero" /><path id="1485" transform="matrix(1 0 0 -1 0 842)" d="M35 204L35 186L116 186L112 204L35 204z" stroke="none" fill="#000000" fill-rule="nonzero" /></g></g></g></svg>